<svg viewBox="0 0 24 24" xmlns="http://www.w3.org/2000/svg"><path fill="#FD0" d="M12.5 11.2c-.8.4-1.8.8-3 .8-.5 0-1-.1-1.5-.2l.8 8.6c0 .4.2.7.5.9s.6.4 1 .4c0 0 1.2.1 1.6.1.4 0 1.7-.1 1.7-.1.4 0 .7-.1 1-.4.3-.2.4-.6.5-.9l.9-9.5c-.4-.1-.8-.2-1.3-.2-.9-.1-1.5.2-2.2.5z"/><path class="currentColor" d="M19.8 6.7l-.1-.6c-.1-.6-.4-1.1-1-1.3-.2-.1-.4-.1-.5-.2S18 4.2 18 4c-.1-.4-.1-.7-.2-1.1-.1-.3-.1-.7-.2-.9-.2-.4-.6-.6-1-.8-.2-.1-.4-.1-.6-.2-1-.3-2-.3-2.9-.4-1.2-.1-2.4 0-3.5.1-1 0-1.9.1-2.8.4-.3.2-.6.3-.8.5-.3.3-.4.8-.2 1.1.2.3.4.5.7.6.3.2.7.3 1.1.4 1 .2 2.1.3 3.2.4 1.2 0 2.3 0 3.5-.1.3 0 .6-.1.9-.1.3-.1.6-.5.5-.8-.1-.4-.4-.5-.8-.5H14.3c-.3 0-.5 0-.8.1-.6 0-1.1.1-1.7.1-.6 0-1.1 0-1.7-.1-.3 0-.5 0-.8-.1h-.5c-.4-.1-.6-.2-.8-.2h-.1v-.1-.1H8c.2 0 .4-.1.6-.1h.2c.1-.1.2-.1.3-.1 1.1-.1 2.2-.2 3.3-.1.5 0 1.1 0 1.6.1h.5c.3 0 .5.1.8.1.4.1.9.1 1 .5.1.1.1.3.1.4v.2l.3 1.2v.2l-.1.1H16.3c-.2 0-.3 0-.5.1-.3 0-.7.1-1 .1-.7.1-1.3.1-2 .1h-1c-1.4 0-2.7-.1-4.1-.2-.1 0-.3 0-.4-.1h-.5c-.3 0-.6-.1-.9-.2-.2.1-.5.1-.9.3-.3.1-.5.4-.6.6-.1.3-.2.6-.3 1s-.1.7-.1 1c.1.7.6 1.3 1.3 1.4.7.2 1.4.3 2.1.4 2.7.3 5.4.4 8.2.1.2 0 .4 0 .7-.1h.2c.1 0 .1.1.2.1s.1.1.1.2v.2l-.1.7c-.1 1.3-.3 2.7-.4 4-.1 1.4-.3 2.8-.4 4.3 0 .4-.1.8-.1 1.2 0 .4 0 .8-.1 1.2-.1.6-.5 1-1.1 1.1-.6.1-1.1.2-1.7.2H11c-.7 0-1.5-.1-2-.6-.5-.4-.5-1.1-.6-1.7-.1-.8-.2-1.6-.2-2.4l-.5-4.4-.3-2.8v-.1c0-.3-.3-.7-.7-.6-.3 0-.7.3-.6.6l.2 2.1.5 4.3c.1 1.2.3 2.5.4 3.7 0 .2 0 .5.1.7.1 1.3 1.1 2 2.3 2.2.7.1 1.4.1 2.2.1.9 0 1.9.1 2.8-.1 1.3-.2 2.4-1.1 2.5-2.5 0-.4.1-.8.1-1.2.1-1.3.3-2.7.4-4l.4-4.4.2-2c0-.1.1-.2.1-.3.1-.1.2-.1.3-.1.4-.1.8-.2 1-.5.3-.5.4-1.1.2-1.7zm-14.5.7s0 .1 0 0c0 .1 0 0 0 0zm.1.1c0 .1 0 .1 0 0 0 .1 0 .1 0 0zm13 0c-.1.1-.3.2-.6.2-2.3.3-4.7.5-7 .4-1.7-.1-3.3-.2-5-.5-.2 0-.3-.1-.5-.2v-.2c0-.2 0-.5.1-.7.1-.3.1-.6.4-.6.5-.1 1 .1 1.5.2.6.1 1.1.2 1.7.2 2.4.2 4.8.2 7.2-.1.4-.1.9-.1 1.3-.2s.8-.2 1 .2c.2.3.2.6.2.9-.2.1-.2.3-.3.4z"/></svg>

