<svg  version="1.1" viewBox="0 0 24 24" xmlns="http://www.w3.org/2000/svg">
<path fill="#FFDD00" d="M12.5,11.2c-0.8,0.4-1.8,0.8-3,0.8c-0.5,0-1-0.1-1.5-0.2l0.8,8.6c0,0.4,0.2,0.7,0.5,0.9s0.6,0.4,1,0.4
	c0,0,1.2,0.1,1.6,0.1c0.4,0,1.7-0.1,1.7-0.1c0.4,0,0.7-0.1,1-0.4c0.3-0.2,0.4-0.6,0.5-0.9l0.9-9.5c-0.4-0.1-0.8-0.2-1.3-0.2
	C13.8,10.6,13.2,10.9,12.5,11.2z"/>
<path class="currentColor" d="M19.8,6.7l-0.1-0.6c-0.1-0.6-0.4-1.1-1-1.3c-0.2-0.1-0.4-0.1-0.5-0.2S18,4.2,18,4c-0.1-0.4-0.1-0.7-0.2-1.1
	c-0.1-0.3-0.1-0.7-0.2-0.9c-0.2-0.4-0.6-0.6-1-0.8C16.4,1.1,16.2,1.1,16,1c-1-0.3-2-0.3-2.9-0.4c-1.2-0.1-2.4,0-3.5,0.1
	C8.6,0.7,7.7,0.8,6.8,1.1C6.5,1.3,6.2,1.4,6,1.6C5.7,1.9,5.6,2.4,5.8,2.7C6,3,6.2,3.2,6.5,3.3c0.3,0.2,0.7,0.3,1.1,0.4
	c1,0.2,2.1,0.3,3.2,0.4c1.2,0,2.3,0,3.5-0.1c0.3,0,0.6-0.1,0.9-0.1c0.3-0.1,0.6-0.5,0.5-0.8c-0.1-0.4-0.4-0.5-0.8-0.5
	c-0.1,0-0.1,0-0.2,0l0,0c-0.1,0-0.2,0-0.4,0c-0.3,0-0.5,0-0.8,0.1c-0.6,0-1.1,0.1-1.7,0.1c-0.6,0-1.1,0-1.7-0.1
	c-0.3,0-0.5,0-0.8-0.1c-0.1,0-0.2,0-0.3,0l-0.1,0l0,0l-0.1,0C8.4,2.5,8.2,2.4,8,2.4c0,0,0,0-0.1,0c0,0,0,0,0-0.1s0,0,0-0.1
	c0,0,0,0,0.1,0h0c0.2,0,0.4-0.1,0.6-0.1c0.1,0,0.1,0,0.2,0h0C8.9,2,9,2,9.1,2c1.1-0.1,2.2-0.2,3.3-0.1c0.5,0,1.1,0,1.6,0.1
	c0.1,0,0.2,0,0.3,0c0,0,0.1,0,0.1,0l0.1,0c0.3,0,0.5,0.1,0.8,0.1c0.4,0.1,0.9,0.1,1,0.5c0.1,0.1,0.1,0.3,0.1,0.4l0,0.2c0,0,0,0,0,0
	c0.1,0.4,0.2,0.8,0.3,1.2c0,0,0,0.1,0,0.1c0,0,0,0.1,0,0.1c0,0,0,0-0.1,0.1c0,0-0.1,0-0.1,0h0l-0.1,0l-0.1,0c-0.2,0-0.3,0-0.5,0.1
	c-0.3,0-0.7,0.1-1,0.1c-0.7,0.1-1.3,0.1-2,0.1c-0.3,0-0.7,0-1,0c-1.4,0-2.7-0.1-4.1-0.2c-0.1,0-0.3,0-0.4-0.1c0,0-0.1,0-0.2,0
	c-0.1,0-0.2,0-0.3,0c-0.3,0-0.6-0.1-0.9-0.2C5.7,4.6,5.4,4.6,5,4.8C4.7,4.9,4.5,5.2,4.4,5.4c-0.1,0.3-0.2,0.6-0.3,1S4,7.1,4,7.4
	c0.1,0.7,0.6,1.3,1.3,1.4C6,9,6.7,9.1,7.4,9.2c2.7,0.3,5.4,0.4,8.2,0.1c0.2,0,0.4,0,0.7-0.1c0.1,0,0.1,0,0.2,0s0.1,0.1,0.2,0.1
	s0.1,0.1,0.1,0.2c0,0.1,0,0.1,0,0.2l-0.1,0.7c-0.1,1.3-0.3,2.7-0.4,4c-0.1,1.4-0.3,2.8-0.4,4.3c0,0.4-0.1,0.8-0.1,1.2
	c0,0.4,0,0.8-0.1,1.2c-0.1,0.6-0.5,1-1.1,1.1c-0.6,0.1-1.1,0.2-1.7,0.2c-0.6,0-1.3,0-1.9,0c-0.7,0-1.5-0.1-2-0.6
	c-0.5-0.4-0.5-1.1-0.6-1.7c-0.1-0.8-0.2-1.6-0.2-2.4l-0.5-4.4l-0.3-2.8c0,0,0-0.1,0-0.1c0-0.3-0.3-0.7-0.7-0.6
	c-0.3,0-0.7,0.3-0.6,0.6l0.2,2.1l0.5,4.3c0.1,1.2,0.3,2.5,0.4,3.7c0,0.2,0,0.5,0.1,0.7c0.1,1.3,1.1,2,2.3,2.2
	c0.7,0.1,1.4,0.1,2.2,0.1c0.9,0,1.9,0.1,2.8-0.1c1.3-0.2,2.4-1.1,2.5-2.5c0-0.4,0.1-0.8,0.1-1.2c0.1-1.3,0.3-2.7,0.4-4l0.4-4.4
	l0.2-2c0-0.1,0.1-0.2,0.1-0.3c0.1-0.1,0.2-0.1,0.3-0.1c0.4-0.1,0.8-0.2,1-0.5C19.9,7.9,20,7.3,19.8,6.7z M5.3,7.4L5.3,7.4
	C5.3,7.4,5.3,7.5,5.3,7.4C5.3,7.5,5.3,7.4,5.3,7.4z M5.4,7.5L5.4,7.5L5.4,7.5C5.4,7.6,5.4,7.6,5.4,7.5C5.4,7.6,5.4,7.6,5.4,7.5z
	 M18.4,7.5L18.4,7.5c-0.1,0.1-0.3,0.2-0.6,0.2c-2.3,0.3-4.7,0.5-7,0.4c-1.7-0.1-3.3-0.2-5-0.5c-0.2,0-0.3-0.1-0.5-0.2
	C5.3,7.4,5.3,7.3,5.3,7.2c0,0,0,0,0,0c0,0,0,0,0,0c0-0.2,0-0.5,0.1-0.7c0.1-0.3,0.1-0.6,0.4-0.6c0.5-0.1,1,0.1,1.5,0.2
	c0.6,0.1,1.1,0.2,1.7,0.2c2.4,0.2,4.8,0.2,7.2-0.1c0.4-0.1,0.9-0.1,1.3-0.2c0.4-0.1,0.8-0.2,1,0.2c0.2,0.3,0.2,0.6,0.2,0.9
	C18.5,7.2,18.5,7.4,18.4,7.5z"/>
</svg>
